<svg version="1.2" xmlns="http://www.w3.org/2000/svg" viewBox="0 0 913 386" width="913" height="386"><style>.a{fill:#2c2e35}</style><path fill-rule="evenodd" class="a" d="m346.9 199.9c-0.6 0.3-1.3 0.5-1.9 0.8-6 2.9-11.9 6-18.1 8.5-10.5 4.2-20.4 9.3-30 15.1-3.1 1.8-6.5 2-9.8 2.8-2.1 0.6-4.2 1-6.3 1.5-2.1 0.5-2.5 0.3-4.2-2.1-0.8-1.2-0.7-2.3 0.2-3.5q5.2-7 10.3-14.1c0.4-0.5 0.7-1 0.9-1.8-0.9 0.4-1.7 0.7-2.5 1.1q-12.8 6.9-25.6 13.7c-0.4 0.2-0.8 0.4-1 0.7-1.3 1.9-3.3 2.3-5.3 2.8q-5.8 1.3-11.5 2.8c-1.4 0.4-2.3-0.2-3.1-1.2-1.1-1.2-2.1-2.6-1.3-4.2 1.1-2.3 2.3-4.6 3.7-6.7 2.6-3.8 5.3-7.5 8-11.3 0.3-0.5 0.6-1 0.8-1.5q-0.1-0.2-0.2-0.3-0.6 0.3-1.2 0.6c-10.4 5.2-20.7 10.3-31 15.6-1.4 0.7-2.6 1.6-3.8 2.7-2.1 1.9-4.8 2.6-7.5 3.3-3.6 0.9-7.2 1.8-10.7 2.7-0.6 0.1-1.4-0.1-1.9-0.4-0.7-0.4-1.2-1.1-1.8-1.6-1-1-1.2-2.2-0.5-3.4q2.7-5 5.4-9.9c0.4-0.9 0.9-1.8 1.1-2.9-0.5 0.2-1 0.4-1.5 0.6-7.7 4.2-15.6 8.3-23.2 12.8-5.6 3.3-11.5 5.9-17.9 7.1-1.9 0.4-3.8 0.8-5.7 1.1-1.5 0.3-4.4-2.1-4.4-3.6 0.1-0.6 0.6-1.2 1-1.7q13.3-14 26.5-27.9c0.4-0.5 0.8-0.9 1.3-1.6-0.6-0.1-0.9-0.1-1.2-0.1q-5.6 0.7-11.2 1.5c-2.5 0.3-3.1 1.2-3.7 3.5-0.9 3.8-2.9 6.9-6.7 8.4q-4 1.6-8.1 3.1c-3.1 1.2-5.6-0.1-5.7-3.4 0-2.6 0.8-5.2 1.3-7.8 0.6-2.6 1.5-5.1 2.1-7.7 0.3-1.2 0.9-2 2.1-2.2 4.6-0.8 9.2-1.7 13.8-2.2 1.6-0.2 3.5 0.2 5 0.7 2.8 0.9 5.5 0.7 8.2 0.4 7-1 14-2 20.9-2.9 1.4-0.2 2.7-0.5 4.1-0.3 0.9 0.1 2 0.5 2.8 1.1 1.3 1 1.2 1.7 0.1 3q-4.7 5.4-9.4 10.9c-0.4 0.3-0.6 0.8-1.2 1.5 0.7-0.2 1.1-0.2 1.3-0.3q9.2-4.4 17.5-10.4c0.7-0.5 1.6-0.8 2.5-1 4.4-0.6 8.8-1.2 13.2-1.8 3-0.4 5.1 2.1 3.9 4.8-1.5 3.5-3.3 6.8-5 10.2-0.2 0.6-0.5 1.2-1 2.1 0.8-0.3 1.1-0.4 1.5-0.6 11.9-5.6 23.8-11.2 35.7-16.8 1-0.5 2.2-0.7 3.4-0.8q6.3-0.7 12.6-1.1c3-0.2 4.4 2.4 2.9 4.8-2.6 3.8-4.9 7.8-7.3 11.7-0.4 0.6-0.8 1.3-1 2.2 0.6-0.2 1.2-0.3 1.7-0.6 8.4-4.4 17-8.6 25.3-13.4 2.8-1.6 5.5-2.2 8.5-2.4 2.8-0.2 5.7-0.6 8.6-0.7 0.9 0 1.9 0.2 2.7 0.6 1.5 0.8 1.7 2 0.9 3.4-0.2 0.2-0.3 0.4-0.4 0.6-1.5 4.7-4.4 8.5-7.4 12.3-0.5 0.7-1 1.6-1.4 2.4q0.1 0.1 0.2 0.2c1-0.4 2.1-0.8 3.1-1.3q21.3-9.8 42.6-19.6c2.5-1.1 4.9-1.9 7.6-2 2.9 0 5.8-0.4 8.7-0.4 1-0.1 2.2 0.3 3.2 0.8 1.1 0.7 1.4 1.8 0.7 3-2.9 4.8-5.7 9.7-9.5 13.9-3.7 4-7 8.2-10.5 12.3-1.5 1.8-3.2 3.6-4.8 5.5-0.4 0.5-0.8 1.1-1.4 2.1 0.9-0.2 1.3-0.3 1.7-0.5q14.5-5 29.1-10.1c0.8-0.3 1.2-0.8 1.4-1.7 2.6-10.5 8.3-19 15.7-26.7 3.8-4 7.7-7.7 12.1-11 6.2-4.6 12.8-8.3 20.3-10.3 4.8-1.4 9.6-1.2 14.5-1 2.8 0.1 5.6 0.1 8.3 0.4 5.9 0.6 11 3 14.4 8 3 4.4 4 9.4 2.5 14.7-0.7 2.4-1.8 4.7-2.8 7-0.2 0.4-0.7 0.8-1.2 0.9-5.5 1.6-11.1 3.1-16.7 4.8-10.5 3.2-21 6.6-31.6 9.9-5.7 1.9-11.4 3.7-17.1 5.6-2.2 0.7-2.2 0.7-2.2 3 0.1 3.9 1.7 7.3 4.2 10.3 4.2 4.8 9.8 6.6 15.7 8.2 6 1.6 11.7 0.3 17.4-1.4 10.2-3.1 19.7-7.8 28.8-13.4 7.4-4.6 14.1-10.1 20.1-16.5q0.1-0.2 0.3-0.4c1.8-1.8 2.3-3.5 1.2-6.1-2.7-6.6-2.2-13.4-0.3-20.2 2.2-7.7 6.3-14.2 11-20.5 8.7-11.4 18.9-21.4 30.1-30.3 7.3-5.8 15-10.9 23-15.5 8-4.6 16.5-8.1 25.1-11.2q11.7-4.2 23.9-6.4c5.7-1 11.4-1.6 17.1-2.1 4.2-0.4 8.5-0.6 12.7-0.5 4 0.1 8 0.5 12 1 6.1 0.7 12.1 1.5 18.1 2.5 5.7 1 11 3.2 15.9 6.2 7.2 4.4 13 10.2 17.4 17.4 5.2 8.4 7.3 17.7 8.2 27.4 0.5 5.8 0.8 11.5 0.1 17.3-0.7 5.4-1.1 10.8-2.2 16.1-0.9 4.7-2.6 9.3-4 13.9-0.6 2-1.6 4-2.5 6.3 1-0.4 1.9-0.7 2.7-1.1 3.9-1.7 7.7-3.4 11.5-5.2 3-1.5 6-3.1 9-4.7 2-1.1 3.9-2.5 6.1-3.4 1.6-0.7 3.6-1 5.4-1.1 3.5-0.2 7-0.1 10.5-0.1 2.4 0 3.3 1.2 2.3 3.4-1 2.3-2.1 4.6-3.3 6.9-2.5 5-5.5 9.7-9.3 13.9-0.7 0.7-1.1 1.6-1.7 2.4q0.1 0.2 0.3 0.3c0.4-0.1 0.8-0.2 1.1-0.4 15-6.6 30-13.1 44.9-19.8 3.9-1.8 8-2.4 12.2-2.6 1.8-0.1 3.6-0.2 5.4-0.2 0.7 0 1.5 0.1 2.1 0.3 1.9 0.8 2.3 2.2 1.2 3.9-3.9 6.1-8.5 11.7-13.5 16.9-2.7 2.9-5.2 5.9-7.9 8.9-1.4 1.5-2.9 3-4.4 4.5q0.1 0.2 0.2 0.4c0.3-0.1 0.5-0.1 0.7-0.1 4.1-1.4 8.1-2.8 12.2-4.1q8.2-2.8 16.5-5.4c1-0.3 1.5-0.7 1.7-1.7 1.9-6.7 5.6-12.3 10-17.6 6.1-7.1 13-13.2 20.8-18.3 6.8-4.4 14-7.9 21.9-9.9 5.1-1.3 10.1-1.2 15.1-1 2.8 0.2 5.6 0.1 8.4 0.4 5.7 0.7 10.5 3.1 13.5 8.3 1.4 2.4 1.5 5.1 1.5 7.7 0.1 3.8-1.7 7.2-3.3 10.6-1.2 2.6-3.1 3.7-5.9 4.4-9 2.3-17.9 4.8-26.7 7.5-11.1 3.3-22.1 7-33.2 10.5-1.7 0.6-3.4 1-5.1 1.5-0.9 0.2-1.3 0.7-1.5 1.7-0.5 4.4 1.2 8.1 3.9 11.3 4.2 4.9 9.9 6.7 15.9 8.2 5.8 1.5 11.3 0.1 16.8-1.5 10.5-3.1 20.4-7.7 29.6-13.5 4.8-3 9.3-6.6 13.9-9.9 0.7-0.5 1.6-1 2.4-1.4 2.9-1.2 5.8-2.4 8.7-3.3 3.6-1.2 7.2-1 10.8-0.4 1.3 0.2 1.8 1.3 0.9 2.3-1.3 1.7-2.7 3.4-4.4 4.6-5 3.8-10.1 7.3-15.1 10.8-1.1 0.8-2.4 1.3-3.5 1.9-3.7 2-7.3 4.1-11 5.9-8 3.9-16.1 7.1-24.9 8.5-5.7 1-11.5 1.3-17.3 1-5.4-0.3-10.8-0.4-16.1-1.1-6.2-0.7-12.2-2.4-17.6-5.9-4.2-2.8-7.2-6.7-8.7-11.6-0.2-0.7-0.3-1.3-0.6-2.2-1.4 0.5-2.8 0.9-4.1 1.2q-17.7 5-35.4 9.9c-2.9 0.8-5.7 1.6-8.6 2.3-1.2 0.3-2.5 0.3-3.7 0.2-1.5-0.1-2.8-3.3-1.8-4.6 3.3-4.2 6.6-8.4 10-12.5 4-4.7 8-9.3 12-14 0.5-0.5 0.9-1.1 1.3-1.6q-0.1-0.2-0.2-0.3c-1 0.4-1.9 0.7-2.8 1.2-8.1 4.1-16.4 7.4-24.8 10.9-6.4 2.6-12.6 5.9-18.6 9.4-4.5 2.6-9.1 4.6-14.3 5.5-2.2 0.4-4.5 0.9-6.7 1.5-2.1 0.6-2.8-0.9-3.7-2.1-1-1.2-0.9-2.3 0-3.5 2.9-3.8 5.9-7.7 8.7-11.6 2.3-3.1 4.5-6.3 6.9-9.7-0.5 0.2-0.9 0.3-1.2 0.5-7.3 3.8-15 6.9-22.8 9.6-1.3 0.5-2.6 0.9-3.9 1.4-0.5 0.3-0.9 0.8-1.3 1.2q-2.6 2.7-5 5.3c-1.4 1.5-2.7 3-4.1 4.4-1.6 1.7-3.1 3.5-4.9 5-3.3 3-6.4 6.2-10.2 8.5-1.7 1-3.1 2.4-4.6 3.6-2.1 1.4-4.2 2.7-6.2 4.1-2.1 1.3-4.1 2.7-6.3 3.9-2.7 1.5-5.4 2.8-8.2 4.2-1.4 0.8-2.9 1.6-4.4 2.2-4.2 1.9-8.5 3.6-12.7 5.6-7.3 3.5-15.1 5.7-22.9 7.7-7.2 1.9-14.6 2.9-22 3.5-11.2 0.8-22.4 0.5-33.5-0.6-8.3-0.9-16.6-1.7-24.5-4.9q-12-4.7-20-15c-2.7-3.6-5.3-7.3-7.1-11.5-2.1-4.8-3.3-9.9-3.7-15.1 0-0.3 0.1-0.5 0-0.8-0.1-0.5-0.3-1.1-0.4-1.7-0.6 0.2-1.2 0.4-1.7 0.7-4.3 2.4-8.5 5-12.9 7.1-4.6 2.1-9.4 4-14.1 5.7-7.9 2.7-16.1 3.6-24.4 3.3-6-0.2-12-0.4-18-1-7-0.8-13.8-2.7-19.5-7.1-4.1-3.1-6.8-7.2-8-12.3q-0.1-0.4-0.3-0.9c-0.1-0.2-0.2-0.4-0.3-0.7-2.2 0.6-4.3 1.3-6.4 1.9-5.5 1.7-11 3.5-16.5 5.2-5.6 1.7-11.2 3.3-16.8 5.1-2.2 0.7-4.4 1.7-6.6 2.5-0.7 0.3-1.4 0.5-2.1 0.7-1.8 0.6-3-0.1-4-1.4-1.7-2.2-1.7-2.5-0.1-4.6q10.4-13 20.7-26.1c0.4-0.4 0.7-0.9 1.1-1.4q-0.2-0.2-0.3-0.3zm222.5 25.5c5.5-0.3 11-0.5 16.5-1 13.4-1.1 26.6-2.8 39.8-5.4 4.2-0.8 8.3-1.7 12.5-2.7 1.8-0.4 3.6-1.1 5.4-1.6 6.1-1.7 12.3-3.4 18.4-5.1 0.8-0.2 1.6-0.8 2.1-1.4 5.4-7.9 10.2-16.1 12.9-25.4 2.5-8.4 3.9-17 4.4-25.7 0.3-5.7 0.4-11.4-0.8-17.1-0.5-2.4-0.5-4.9-1.2-7.3-0.7-2.8-1.8-5.6-3-8.2-1.6-3.5-3.2-7.1-5.4-10.2-3.3-4.7-7.5-8.6-12.3-11.9-3.8-2.6-7.9-4.8-12.5-5.5-9.8-1.3-19.6-1.1-29.4 0-6.2 0.7-12.3 1.9-18.3 3.2-4.3 1-8.6 2.5-12.7 4-4.8 1.6-9.5 3.1-13.9 5.6-6.2 3.5-12.7 6.5-18.9 10.1-3.9 2.2-7.4 5-11 7.7-3.6 2.6-7.1 5.2-10.5 8.1-5.1 4.4-10 9-14.5 14-4.4 4.9-8.8 9.8-12.3 15.3-4.9 7.6-8.3 15.6-8.3 24.7 0 4.4 1.4 8.4 3.8 11.9 2.8 4.2 6.8 7.3 11 10.1 7.1 4.8 15.2 7.7 23.5 9.8 11.4 2.9 22.9 4.2 34.7 4zm83.6-4.1q-0.1-0.1-0.2-0.3-5.5 1-11 1.9c-5.8 1-11.6 2.2-17.5 3-8.5 1.1-17.1 2.1-25.7 2.6-9.5 0.6-19.1 0.8-28.6 0.9-6.4 0-12.8-0.6-19.1-1-10.1-0.6-20.1-1.8-29.9-4.5-8.1-2.2-16.1-5-23.3-9.5-0.6-0.4-1.2-0.6-1.9-1-0.2 0.6-0.5 1.1-0.6 1.5-0.5 3-1.1 6-1.2 9-0.3 7.2 1.2 14.2 5 20.4 1.9 3.2 4 6.3 6.5 9.1 4.4 5.3 9.9 9.4 16.4 11.9 8.3 3.1 17 4.4 26 3.9q22.8-1.2 44.1-9.5c10.9-4.3 21.5-9.4 31.7-15.5 9.7-5.8 18.7-12.5 26.8-20.4q1.2-1.3 2.5-2.5zm-255.5-16.9q0.1 0.1 0.3 0.3 0.5-0.1 1-0.3c6.1-2.1 12.2-4.2 18.4-6.2 9.6-3.1 19.2-6.1 28.7-9.3 0.5-0.1 1-0.4 1.2-0.9 3.3-5.5 5-11.2 1.5-17.4-1.1-2-3.6-3.7-5.3-3.3-6.8 1.3-13 3.9-18.7 7.6-9.3 6-17.1 13.6-23.2 22.9-1.4 2.1-2.6 4.4-3.9 6.6zm415.2 0.9q0.1 0.2 0.3 0.3 7.6-2.4 15.2-4.8c10.8-3.4 21.6-6.9 32.5-10.1 2.4-0.7 4.1-1.8 5.1-4 0.1-0.2 0.2-0.3 0.3-0.5 2.1-4.5 4.1-8.9 1.9-14-1-2.1-3.2-3.8-5.2-3.4-7 1.2-13.6 3.8-19.8 7.3-10.1 5.8-18.9 13.2-25.8 22.6-1.6 2.1-3.1 4.4-4.5 6.6zm-692.8-24c-2.8 0.4-5.3 0.7-7.9 1.1-11.4 1.8-22.9 1.7-34.4 0.3-6.7-0.9-12.9-3.1-18.1-7.5-1.2-1-2.2-2-3.2-3.2-2.4-2.9-2.5-5.9 0-8.7 2-2.3 4.4-4.4 7-6 8.6-5.1 17.5-10 26.3-14.9 17.6-9.8 35.5-19.4 52.3-30.6 6.3-4.2 12.3-8.9 18.4-13.4 0.9-0.6 1.7-1.5 2.3-2.4 0.6-0.9 1.4-1.3 2.4-1.5q5.7-0.7 11.3-1.4c1.9-0.2 2.9 0.6 3.3 2.5 0.4 1.9-0.1 3.6-1 5.2-4.4 8.3-8.7 16.6-13.2 24.8-7.9 14.5-14.8 29.5-21.9 44.4-0.1 0.1-0.2 0.3-0.3 0.8 0.7-0.2 1.2-0.4 1.7-0.5 10.9-3.9 21.4-8.5 31.6-13.9 9-4.7 17.8-9.8 25.8-16.1 4.1-3.2 8.3-6.5 12.1-10.2 4.5-4.3 8.6-9.1 11.5-14.8 5.7-11.2 2-24.2-8.8-30.6-6.4-3.8-12.7-7.8-19.9-9.7-14-3.8-28.1-7.1-42.6-8.2-12-1-23.8-0.7-35.7 0.5-9.3 1-18.5 2.8-27.6 5-12.6 2.9-24.8 7-36.5 12.3-9.1 4.2-17.7 9.4-25.2 16-3.7 3.3-6.8 7.2-9.6 11.2-3 4.2-3.4 9.1-1.6 14 4.9 13.5 14.4 22.7 27.3 28.7 1.5 0.7 3.1 1.5 4.5 2.5 1.4 1 1.3 2.5-0.3 3.2-3.1 1.4-6.2 2.7-9.4 3.9-0.7 0.3-1.7 0.2-2.4-0.1-6.5-3.6-13.3-6.7-19.2-11-8.4-6.3-14.3-14.7-17.6-24.7-1.8-5.5-0.5-10.6 2-15.5 2-3.7 4.9-6.6 7.9-9.5 8.8-8.5 19.5-14.2 30.3-19.7 10-5.1 20.6-8.5 31.3-11.8 14.5-4.5 29.4-7.6 44.4-9.7 10.2-1.5 20.6-1.8 30.9-2.1 22.3-0.6 44 2.8 65.1 9.9 6.5 2.2 12.7 5.4 18.5 8.9 6.7 4 11.9 9.7 14.3 17.5 1.1 3.4 1.3 6.8 0.4 10.4-1.8 6.5-5.2 12.1-8.8 17.5-0.7 1.1-1.8 1.9-2.7 2.8-2.5 2.2-5 4.4-7.4 6.6-5.4 5-11.4 9.1-17.6 12.8-2.3 1.3-4.3 3.2-6.6 4.4-7 3.8-14.1 7.4-21.1 11.1-9.7 5.1-20.3 8-30.7 11.2-3.2 1-6.4 2-9.6 2.9-1.2 0.4-1.8 1-2.4 2.1q-23.4 49.3-47 98.5c-0.9 2-2.1 3.9-3.4 5.7-0.7 1.1-1.9 1.9-3 2.6-2.6 1.5-5.2 2.8-7.8 4.2-1.8 1-3.7 1.1-5.6 0.9-2.1-0.2-3.8-3.6-2.9-5.5q24.8-50.9 49.6-101.8c0.2-0.4 0.3-0.8 0.5-1.4zm31.6-64.7q-0.1-0.1-0.3-0.2-0.5 0.4-1.1 0.7c-2.7 1.8-5.4 3.8-8.3 5.4-15.9 8.7-31.9 17.3-47.9 25.8-7.2 3.8-14.1 8-20.3 13.3-1.6 1.4-2.9 3-2.3 5.1 0.8 2.7 1.9 5.3 5.2 5.9 0.6 0.1 1.1 0.3 1.7 0.5 5.5 1.3 11 2.9 16.6 3.8 8.6 1.2 17.2 0.3 25.7-0.6 1.4-0.2 2.2-0.8 2.8-2 2.5-5.4 5.1-10.7 7.7-16.1 6.6-13.3 13.3-26.6 19.9-39.9 0.2-0.5 0.4-1.1 0.6-1.7zm87.3 35.1c-0.2 0.8-0.3 1.6-0.6 2.4-2.1 7-4.3 14-7.8 20.5-0.1 0.2-0.2 0.3-0.2 0.4-0.4 2.8-2.2 3.5-4.7 3.8-4.9 0.5-9.8 1.2-14.7 1.8-1.4 0.2-2.5-1.2-2-2.5 2.6-7 6.1-13.5 10-19.9 2.3-3.9 5.6-5.9 9.8-6.7 2.9-0.6 5.9-0.8 8.8-1.1q1.5-0.2 1.4 1.3z"/><path class="a" d="m340.5 381c0 0.2 0 0.9-0.1 1.5-0.4 1.9-1.3 2.5-2.1 2.8-0.8 0.3-1.7 0.3-1.9 0.3-1 0-1.9-0.2-2.7-0.8-0.2-0.1-0.5-0.4-0.8-0.9-0.7-1-0.8-2.3-0.8-4.7v-2.9q0-1.5 0-2.9c0.1-1.4 0.1-3.3 1-4.5 0.7-1.1 2.2-1.5 3.4-1.5 1.6 0 2.5 0.7 3 1.2 0.6 0.7 0.9 1.6 0.9 3.5 0 0.4 0 0.8 0 1.2h-2q0-1-0.1-2c0-0.7 0-1.2-0.6-1.7-0.3-0.1-0.6-0.3-1.2-0.3-0.5 0-1.6 0.1-2 1.5-0.2 1-0.2 3.2-0.2 5.8q0 2 0.1 4c0 0.7-0.1 1.6 0.3 2.3 0.5 0.8 1.5 0.8 1.8 0.8 0.2 0 0.7 0 1.2-0.3 0.8-0.7 0.7-2.1 0.7-2.9v-1.3h2.1q0 0.9 0 1.8z"/><path fill-rule="evenodd" class="a" d="m374 385.3l-0.6-3.4h-4.1l-0.6 3.4h-2.3l3.8-17.6h2.2l3.9 17.6zm-2.7-14.3l-1.6 9.1h3.3z"/><path class="a" d="m406.1 369.7v15.6h-2.2v-15.6h-3.4v-2h8.9v2z"/><path class="a" d="m435.9 385.3v-17.6h7.7v2h-5.5v5.2h4.8v2h-4.8v6.5h5.7v1.9z"/><path fill-rule="evenodd" class="a" d="m477.8 385.3l-3-7.7h-1.9v7.7h-2.1v-17.6h3.8c1.1 0 2.3 0.1 3.3 0.8 1.5 1.2 1.4 3.6 1.4 3.9q0 1.1-0.2 2.2c-0.2 1-0.5 1.5-0.7 1.9-0.6 0.6-1.2 0.8-1.5 0.9l3.1 7.9zm-0.8-14.4c-0.5-1.3-1.8-1.2-2.9-1.2h-1.1v6.2h1.2c1 0 1.4 0 1.9-0.2 1.1-0.5 1.1-2 1.1-2.9 0-0.6 0-1.3-0.2-1.9z"/><path class="a" d="m506.6 385.3v-17.6h2.2v17.6z"/><path class="a" d="m541.6 385.3l-3.4-15.2 0.3 15.2h-2.2v-17.6h3l3.6 15.4-0.3-15.4h2.1v17.6z"/><path class="a" d="m579 385.3v-1.2c-0.3 0.3-0.4 0.4-0.7 0.7-0.4 0.2-1.3 0.8-2.5 0.8-0.8 0-2.7-0.3-3.4-2.4-0.3-1-0.3-1.9-0.3-3.8q0-1.4 0-2.8 0-1.9 0-3.8c0-0.1 0-1.8 0.3-2.7 0.8-2.7 3.4-2.7 4.2-2.7 1.4 0 2.2 0.4 2.8 0.7 0.2 0.2 0.4 0.4 0.5 0.5q0.4 0.5 0.6 1.1c0.2 0.6 0.2 1.1 0.2 2.2v1.2h-2.1v-0.9q0-0.4 0-0.9c0-0.7-0.1-2-2-2-0.2 0-0.8 0-1.4 0.4q-0.3 0.2-0.4 0.4c-0.1 0.1-0.2 0.3-0.3 0.7-0.2 0.8-0.3 2.7-0.3 5v2.1c0 1 0.1 2 0.1 2.9 0.1 1 0.1 1.5 0.3 1.9 0.3 0.8 1 1.1 1.8 1.1 0.2 0 0.9 0 1.6-0.6 0.1-0.1 0.3-0.4 0.5-0.8 0.2-0.4 0.3-1.3 0.3-2.5v-1.8h-2.6v-1.9h4.6v9.1z"/><path class="a" d="m404.7 18.4l-3.5-15.2 0.3 15.2h-2.1v-17.6h3l3.6 15.5-0.3-15.5h2.1v17.6zm35.3-7.1v7.1h-2.2v-7.1l-3.8-10.5h2.3l2.7 8.8 2.6-8.8h2.3zm38.3 2.8c0 0.2 0 1-0.1 1.6-0.3 1.8-1.3 2.4-2.1 2.7-0.8 0.3-1.6 0.3-1.9 0.3-1 0-1.9-0.1-2.7-0.8-0.1-0.1-0.5-0.4-0.8-0.9-0.7-1-0.7-2.3-0.7-4.7v-2.9q0-1.4 0-2.9c0-1.4 0-3.3 0.9-4.5 0.8-1 2.2-1.4 3.5-1.4 1.6 0 2.4 0.6 2.9 1.1 0.7 0.7 0.9 1.6 0.9 3.5q0 0.6 0 1.2h-2q0-1 0-2c-0.1-0.7-0.1-1.2-0.7-1.6-0.2-0.2-0.6-0.4-1.1-0.4-0.6 0-1.7 0.1-2 1.5-0.3 1-0.3 3.2-0.3 5.8q0 2 0.1 4c0 0.7 0 1.6 0.4 2.3 0.4 0.8 1.5 0.9 1.7 0.9 0.2 0 0.7 0 1.2-0.4 0.8-0.6 0.8-2 0.8-2.9v-1.3h2q0.1 0.9 0 1.8zm33.6 3.9c-1.1 0.7-2.3 0.7-2.7 0.7-0.6 0-3.2 0-4-2.4-0.2-0.7-0.3-1.3-0.3-2v-1.9h2.1v0.8c0 1.2 0 1.8 0.2 2.4 0.2 0.4 0.7 1.2 2 1.2 0.8 0 1.6-0.3 2-1.1 0.2-0.4 0.2-0.9 0.2-1.1 0-1.5-0.7-2.1-1.6-3.1l-2.4-2.4c-1.4-1.5-2.1-2.4-2.1-4.5 0-0.2 0-0.9 0.3-1.6 0.3-1.2 1.3-2.4 3.8-2.4 0.6 0 3 0 3.6 2.3 0.2 0.5 0.2 1.4 0.2 2v1.1h-2c0-1.1 0-0.8 0-1.4 0-0.8-0.1-1.6-0.9-2-0.5-0.2-0.8-0.2-1-0.2-0.5 0-1 0.2-1.3 0.5-0.2 0.2-0.3 0.4-0.4 0.5q-0.1 0.3-0.1 1.1c0 0.2 0 0.6 0.1 1.1 0.3 0.8 1 1.5 1.6 2.1l2.8 2.9c0.2 0.3 0.4 0.5 0.5 0.7 0.5 0.6 1 1.5 1 3.2 0 2.1-0.8 3-1.6 3.5zm-20.5-10.8v-3.1c0-1.6 0.3-2.9 2.1-3.3v1.3c-1.1 0.3-1 1.3-1 2.1h1v3z"/></svg>